<svg id="Capa_1" enable-background="new 0 0 512 512" height="512" viewBox="0 0 512 512" width="512" xmlns="http://www.w3.org/2000/svg"><g><path d="m495.484 90.839h-478.968l-8.699 10.161v294.151c0 9.122 7.395 16.516 16.516 16.516h477.667l10-7.021v-297.29c0-9.123-7.395-16.517-16.516-16.517z" fill="#e5646e"/><path d="m16.516 355.097v-264.258c-9.121 0-16.516 7.394-16.516 16.516v297.29c0 9.122 7.395 16.516 16.516 16.516h478.968c9.121 0 16.516-7.395 16.516-16.516h-445.935c-27.365 0-49.549-22.183-49.549-49.548z" fill="#db4655"/><path d="m340.629 243.617c-17.673-34.171-69.942-41.751-91.477-1.742 1.142-7.076 3.998-16.034 10.227-26.737 9.249-15.89-2.929-22.099-3.849-34.471-.442-5.94.355-10.842 1.365-14.44.874-3.112-2.056-6.008-5.141-5.044-34.664 10.833-51.464 56.149-23.33 84.872-4.873-3.92-10.201-9.335-15.659-16.974-10.689-14.96-21.352-6.407-33.01-10.65-5.596-2.037-9.739-4.776-12.604-7.175-2.479-2.076-6.323-.592-6.711 2.618-4.375 36.175 30.293 70.2 68.188 55.97-5.088 3.565-11.707 7.148-20.449 10.255-17.324 6.158-12.037 18.764-19.325 28.804-3.501 4.822-7.277 8.052-10.373 10.146-2.673 1.808-2.315 5.907.658 7.163 32.766 13.835 73.791-8.669 72.724-47.273 1.064 5.463 1.686 11.945 1.449 19.705-.561 18.378 13.104 18.035 19.808 28.473 3.215 5.006 4.851 9.691 5.677 13.334.718 3.166 4.694 4.297 6.955 1.968 26.783-27.593 17.401-79.535-27.325-87.292 7.429-.428 17.479.596 30.392 5.36 17.25 6.365 21.261-6.702 33.288-9.746 5.768-1.46 10.73-1.524 14.447-1.151 3.232.321 5.566-3.09 4.075-5.973zm-98.319 25.388c-4.536 0-8.214-3.677-8.214-8.214 0-4.536 3.677-8.214 8.214-8.214s8.214 3.677 8.214 8.214-3.677 8.214-8.214 8.214z" fill="#fff"/></g></svg>