<svg id="Capa_1" enable-background="new 0 0 512 512" height="512" viewBox="0 0 512 512" width="512" xmlns="http://www.w3.org/2000/svg"><g><path d="m512 140.387-12.333-13.387h-486l.333 258.667h485.667l12.333-14.054v-49.548l-9.5-11.565v-110l9.5-10.565z" fill="#f2f2f6"/><g fill="#e1e1e6"><path d="m16.516 131.667-16.516 8.72v49.548l16.516 5.321v-5.321z"/><path d="m16.516 314.68-16.516 7.385v49.547l11.625 5.887 7.717-5.868c-1.83-5.171-2.826-10.737-2.826-16.535v-33.032z"/></g><path d="m512 322.065h-495.484l-10.516-14.565v-104.5l10.516-13.065h495.484z" fill="#e5646e"/><path d="m0 189.935h16.516v132.129h-16.516z" fill="#db4655"/><path d="m495.484 90.839h-478.968l-7.766 16.516 7.766 33.032h495.484v-33.032c0-9.122-7.395-16.516-16.516-16.516z" fill="#5055a0"/><path d="m16.516 90.839c-9.121 0-16.516 7.394-16.516 16.516v33.032h16.516z" fill="#3f3f8f"/><path d="m495.484 415.5h-467.968l-16.516-10.855 8.342-33.013 492.658-.019v33.032z" fill="#5055a0"/><path d="m0 404.645c0 9.121 7.395 16.516 16.516 16.516h478.968c9.121 0 16.516-7.395 16.516-16.516h-445.935c-21.565 0-39.913-13.8-46.722-33.032h-19.343z" fill="#3f3f8f"/></g></svg>