<svg id="Capa_1" enable-background="new 0 0 512 512" height="512" viewBox="0 0 512 512" width="512" xmlns="http://www.w3.org/2000/svg"><g><path d="m495.484 90.839h-478.968l-8.699 10.161v294.151c0 9.122 7.395 16.516 16.516 16.516h477.667l10-7.021v-297.29c0-9.123-7.395-16.517-16.516-16.517z" fill="#e5646e"/><path d="m16.516 355.097v-264.258c-9.121 0-16.516 7.394-16.516 16.516v297.29c0 9.122 7.395 16.516 16.516 16.516h478.968c9.121 0 16.516-7.395 16.516-16.516h-445.935c-27.365 0-49.549-22.183-49.549-49.548z" fill="#db4655"/><path d="m346.839 222.968h-57.806v-57.806c0-4.561-3.697-8.258-8.258-8.258h-49.548c-4.561 0-8.258 3.697-8.258 8.258v57.806h-57.806c-4.561 0-8.258 3.697-8.258 8.258v49.548c0 4.56 3.697 8.258 8.258 8.258h57.806v57.806c0 4.56 3.697 8.258 8.258 8.258h49.548c4.561 0 8.258-3.698 8.258-8.258v-57.806h57.806c4.561 0 8.258-3.698 8.258-8.258v-49.548c0-4.561-3.697-8.258-8.258-8.258z" fill="#fff"/></g></svg>