<svg id="Capa_1" enable-background="new 0 0 512 512" height="512" viewBox="0 0 512 512" width="512" xmlns="http://www.w3.org/2000/svg"><g><path d="m495.484 90.839h-305.549c-9.122 0-16.516 7.395-16.516 16.516v307.645h322.065l16.516-10.355v-297.29c0-9.122-7.395-16.516-16.516-16.516z" fill="#e5646e"/><path d="m189.935 90.839h-173.419l-8.032 16.516v288.462c0 9.121 7.395 16.516 16.516 16.516h152l12.936-7.688v-313.806z" fill="#95cc81"/><circle cx="189.935" cy="256" fill="#ffe07d" r="74.323"/><path d="m181.333 404.645 8.602 16.516h305.548c9.121 0 16.516-7.395 16.516-16.516z" fill="#db4655"/><path d="m189.936 297.29c-18.243 0-33.032-14.789-33.032-33.032v-33.032c0-4.561 3.697-8.258 8.258-8.258h49.548c4.561 0 8.258 3.697 8.258 8.258v33.032c0 18.243-14.789 33.032-33.032 33.032z" fill="#e5646e"/><path d="m0 107.355v297.29c0 9.121 7.395 16.516 16.516 16.516h173.419v-16.516h-123.87c-27.365 0-49.548-22.183-49.548-49.548v-264.258c-9.122 0-16.517 7.394-16.517 16.516z" fill="#7dbd80"/><path d="m189.936 280.774c-9.122 0-16.516-7.395-16.516-16.516v-24.774h33.032v24.774c0 9.122-7.395 16.516-16.516 16.516z" fill="#fff"/></g></svg>