<svg id="Capa_1" enable-background="new 0 0 512 512" height="512" viewBox="0 0 512 512" width="512" xmlns="http://www.w3.org/2000/svg"><g><path d="m495.484 90.839h-239.484l-8.042 6.328-7.186-6.328h-83.868l-16.516 14.661h-24.775l-16.516-14.661h-81.466c-.743 0-1.485.037-2.223.112l-7.591 10.049v294.151c0 9.122 7.395 16.516 16.516 16.516h477.667l10-7.021v-297.29c0-9.123-7.395-16.517-16.516-16.517z" fill="#5055a0"/><path d="m16.516 355.097v-251.222l-15.403-2.492c-.719 1.852-1.113 3.866-1.113 5.972v36.904l6.167 7.074v45.667l-6.167 5.065v44.11l6.167 4.492-6.167 5.333v148.645c0 9.122 7.395 16.516 16.516 16.516h478.968c9.121 0 16.516-7.395 16.516-16.516h-445.935c-27.365 0-49.549-22.183-49.549-49.548z" fill="#3f3f8f"/><path d="m148.645 152.774-8.257-61.935h-24.775l-8.258 61.935h-98.855v41.291h98.855l8.258 61.936h24.775l8.257-61.936 107.355-8.517v-24.774z" fill="#e5646e"/><path d="m16.516 152.774-16.516 8v24.774l16.516 8.517z" fill="#db4655"/><path d="m256 90.839h-15.228l-82.8 53.419h-1.068v-53.419h-16.516v61.935c0 4.418 3.582 8 8 8h107.612v-16.516h-67.564l67.564-43.589z" fill="#f2f2f6"/><path d="m99.097 90.839v53.419h-1.064l-81.517-52.592-8.516 6.834 8.516 12.821 51.053 32.938h-51.053l-8.016 8.515 8.016 8h91.097c4.418 0 8-3.582 8-8v-61.935z" fill="#f2f2f6"/><path d="m9.5 194.667 7.016 7.398h51.856l-51.856 33.455-5.599 11.064 5.599 8.591 82.32-53.109h.262v53.936h16.516v-62.452c0-4.418-3.582-8-8-8h-91.098z" fill="#f2f2f6"/><path d="m140.388 256.001h16.516v-53.936h.264l83.599 53.935h15.233v-9.827l-68.368-44.109h68.368v-16.516h-107.612c-4.418 0-8 3.582-8 8z" fill="#f2f2f6"/><path d="m16.516 91.666-1.109-.715c-6.526.442-12.032 4.593-14.294 10.432l15.403 9.938z" fill="#e1e1e6"/><path d="m0 144.258h16.516v16.516h-16.516z" fill="#e1e1e6"/><path d="m16.516 235.52-16.516 10.655v9.825h15.236l1.28-.826z" fill="#e1e1e6"/><path d="m0 185.548h16.516v16.516h-16.516z" fill="#e1e1e6"/><g fill="#f2f2f6"><path d="m168.603 326.408-18.749-.165-9.206-20.146c-.87-2.608-4.559-2.608-5.429 0l-6.719 20.146-21.236.165c-2.749.021-3.889 3.53-1.678 5.163l17.084 12.615-6.406 20.248c-.83 2.622 2.155 4.79 4.392 3.191l17.277-12.349 17.277 12.349c2.237 1.599 5.222-.57 4.392-3.191l-6.406-20.248 17.084-12.615c2.213-1.633 1.073-5.141-1.677-5.163z"/><path d="m396.918 342.881-5.431-.048-3.653-7.995c-.82-1.795-2.612-2.946-4.585-2.946-2.17 0-4.096 1.388-4.782 3.446l-2.499 7.494-7.223.056c-4.63.036-6.55 5.944-2.825 8.695l5.81 4.291-2.179 6.886c-1.397 4.414 3.629 8.066 7.396 5.374l5.876-4.2 5.876 4.2c3.767 2.692 8.793-.959 7.396-5.374l-2.179-6.886 5.822-4.299c3.723-2.748 1.808-8.653-2.82-8.694z"/><path d="m330.725 243.785-5.431-.048-3.653-7.995c-.82-1.795-2.612-2.946-4.585-2.946-2.17 0-4.096 1.388-4.782 3.446l-2.499 7.494-7.223.056c-4.63.036-6.55 5.944-2.825 8.695l5.81 4.291-2.179 6.886c-1.397 4.414 3.629 8.066 7.396 5.374l5.876-4.2 5.876 4.2c3.767 2.692 8.793-.959 7.396-5.374l-2.179-6.886 5.822-4.299c3.723-2.749 1.807-8.654-2.82-8.694z"/><path d="m462.767 210.26-5.431-.048-3.653-7.995c-.82-1.795-2.612-2.946-4.585-2.946-2.17 0-4.096 1.388-4.782 3.446l-2.499 7.494-7.223.056c-4.63.036-6.55 5.944-2.825 8.695l5.81 4.291-2.179 6.886c-1.397 4.414 3.63 8.066 7.396 5.374l5.876-4.2 5.876 4.2c3.767 2.692 8.793-.959 7.396-5.374l-2.179-6.886 5.822-4.299c3.723-2.748 1.808-8.653-2.82-8.694z"/><path d="m396.743 160.4-5.431-.048-3.653-7.995c-.82-1.795-2.612-2.946-4.585-2.946-2.17 0-4.096 1.388-4.782 3.446l-2.499 7.494-7.223.056c-4.63.036-6.55 5.944-2.825 8.695l5.81 4.291-2.179 6.886c-1.397 4.414 3.629 8.066 7.396 5.374l5.876-4.2 5.876 4.2c3.767 2.692 8.793-.959 7.396-5.374l-2.179-6.886 5.822-4.299c3.723-2.748 1.808-8.653-2.82-8.694z"/><path d="m412.516 259.154-3.005-.026-2.021-4.423c-.454-.993-1.445-1.63-2.537-1.63-1.2 0-2.266.768-2.646 1.907l-1.383 4.146-3.996.031c-2.561.02-3.624 3.289-1.563 4.81l3.215 2.374-1.205 3.81c-.773 2.442 2.008 4.462 4.092 2.973l3.251-2.324 3.251 2.324c2.084 1.489 4.865-.531 4.092-2.973l-1.205-3.81 3.221-2.378c2.059-1.521.999-4.788-1.561-4.811z"/></g></g></svg>