<svg id="Capa_1" enable-background="new 0 0 512 512" height="512" viewBox="0 0 512 512" width="512" xmlns="http://www.w3.org/2000/svg"><g><path d="m495.484 239.484h-472.484c-9.122 0-16.516 7.395-16.516 16.516v140.484c0 9.121 7.394 16.516 16.516 16.516h472.484l16.516-8.355v-148.645c0-9.122-7.395-16.516-16.516-16.516z" fill="#e5646e"/><path d="m16.516 355.097v-115.613c-9.121 0-16.516 7.394-16.516 16.516v148.645c0 9.122 7.395 16.516 16.516 16.516h478.968c9.121 0 16.516-7.395 16.516-16.516h-445.935c-27.365 0-49.549-22.183-49.549-49.548z" fill="#db4655"/><path d="m495.484 90.839h-330.323c-9.121 0-16.516 7.394-16.516 16.516l16.516 148.645h346.839v-148.645c0-9.122-7.395-16.516-16.516-16.516z" fill="#f2f2f6"/><path d="m16.516 90.839-10.183 36.161 10.183 129h148.645v-165.161z" fill="#5055a0"/><path d="m0 107.355v148.645h16.516v-165.161c-9.121 0-16.516 7.394-16.516 16.516z" fill="#3f3f8f"/><path d="m120.366 161.77-23.099-.203-11.342-24.82c-1.071-3.214-5.617-3.214-6.689 0l-8.278 24.82-26.164.203c-3.387.026-4.792 4.349-2.067 6.361l21.048 15.542-7.892 24.945c-1.022 3.23 2.655 5.901 5.411 3.932l21.286-15.215 21.286 15.215c2.756 1.97 6.433-.702 5.411-3.932l-7.892-24.945 21.048-15.542c2.725-2.012 1.32-6.335-2.067-6.361z" fill="#fff"/></g></svg>