<svg id="Capa_1" enable-background="new 0 0 512 512" height="512" viewBox="0 0 512 512" width="512" xmlns="http://www.w3.org/2000/svg"><g><g><path d="m495.484 90.839h-478.968l-8.699 10.161v294.151c0 9.122 7.395 16.516 16.516 16.516h477.667l10-7.021v-297.29c0-9.123-7.395-16.517-16.516-16.517z" fill="#95cc81"/><path d="m16.516 355.097v-264.258c-9.121 0-16.516 7.394-16.516 16.516v297.29c0 9.122 7.395 16.516 16.516 16.516h478.968c9.121 0 16.516-7.395 16.516-16.516h-445.935c-27.365 0-49.549-22.183-49.549-49.548z" fill="#7dbd80"/></g><g fill="#fff"><path d="m363.355 338.581h-214.71c-4.565 0-8.258-3.694-8.258-8.258s3.694-8.258 8.258-8.258h214.71c4.565 0 8.258 3.694 8.258 8.258s-3.694 8.258-8.258 8.258z"/><path d="m322.065 280.774c-4.565 0-8.258-3.694-8.258-8.258v-90.839c0-4.565 3.694-8.258 8.258-8.258s8.258 3.694 8.258 8.258v90.839c0 4.565-3.694 8.258-8.258 8.258z"/><path d="m355.097 280.774c-4.565 0-8.258-3.694-8.258-8.258v-90.839c0-4.565 3.694-8.258 8.258-8.258s8.258 3.694 8.258 8.258v90.839c0 4.565-3.694 8.258-8.258 8.258z"/><path d="m388.129 280.774c-4.565 0-8.258-3.694-8.258-8.258v-90.839c0-4.565 3.694-8.258 8.258-8.258s8.258 3.694 8.258 8.258v90.839c0 4.565-3.693 8.258-8.258 8.258z"/><path d="m289.032 214.71c-4.565 0-8.258-3.694-8.258-8.258v-24.774c0-4.565 3.694-8.258 8.258-8.258s8.258 3.694 8.258 8.258v24.774c0 4.564-3.693 8.258-8.258 8.258z"/><path d="m256 214.71c-4.565 0-8.258-3.694-8.258-8.258v-24.774c0-4.565 3.694-8.258 8.258-8.258s8.258 3.694 8.258 8.258v24.774c0 4.564-3.693 8.258-8.258 8.258z"/><path d="m222.968 214.71c-4.565 0-8.258-3.694-8.258-8.258v-24.774c0-4.565 3.694-8.258 8.258-8.258s8.258 3.694 8.258 8.258v24.774c0 4.564-3.694 8.258-8.258 8.258z"/><path d="m156.903 222.968c-4.565 0-8.258-3.694-8.258-8.258v-33.032c0-4.565 3.694-8.258 8.258-8.258s8.258 3.694 8.258 8.258v33.032c0 4.564-3.693 8.258-8.258 8.258z"/><path d="m123.871 214.71c-4.565 0-8.258-3.694-8.258-8.258v-24.774c0-4.565 3.694-8.258 8.258-8.258 4.565 0 8.258 3.694 8.258 8.258v24.774c0 4.564-3.694 8.258-8.258 8.258z"/><path d="m123.871 264.258c-4.565 0-8.258-3.694-8.258-8.258v-16.516c0-4.565 3.694-8.258 8.258-8.258 4.565 0 8.258 3.694 8.258 8.258v16.516c0 4.565-3.694 8.258-8.258 8.258z"/><path d="m173.419 280.774c-13.661 0-24.774-11.113-24.774-24.774v-8.258c0-4.565 3.694-8.258 8.258-8.258s8.258 3.694 8.258 8.258v8.258c0 4.556 3.702 8.258 8.258 8.258s8.258-3.702 8.258-8.258v-74.323c0-4.565 3.694-8.258 8.258-8.258s8.258 3.694 8.258 8.258v74.323c.001 13.661-11.112 24.774-24.774 24.774z"/><path d="m239.484 280.774c-13.661 0-24.774-11.113-24.774-24.774v-8.258c0-4.565 3.694-8.258 8.258-8.258s8.258 3.694 8.258 8.258v8.258c0 4.556 3.702 8.258 8.258 8.258s8.258-3.702 8.258-8.258v-16.516c0-4.565 3.694-8.258 8.258-8.258s8.258 3.694 8.258 8.258v16.516c0 13.661-11.113 24.774-24.774 24.774z"/><path d="m289.032 264.258c-4.565 0-8.258-3.694-8.258-8.258v-16.516c0-4.565 3.694-8.258 8.258-8.258s8.258 3.694 8.258 8.258v16.516c0 4.565-3.693 8.258-8.258 8.258z"/></g></g></svg>