<svg id="Capa_1" enable-background="new 0 0 512 512" height="512" viewBox="0 0 512 512" width="512" xmlns="http://www.w3.org/2000/svg"><g><path d="m495.484 239.484h-470.484c-9.122 0-16.516 7.395-16.516 16.516v140.817c0 9.122 7.395 16.516 16.516 16.516h470.484l16.516-8.688v-148.645c0-9.122-7.395-16.516-16.516-16.516z" fill="#f2f2f6"/><path d="m16.516 355.097v-107.597l-16.516 8.5v148.645c0 9.122 7.395 16.516 16.516 16.516h478.968c9.121 0 16.516-7.395 16.516-16.516h-445.935c-27.365 0-49.549-22.183-49.549-49.548z" fill="#e1e1e6"/><path d="m495.484 90.839h-478.968l-8.516 16.516v130.645l8.516 18h495.484v-148.645c0-9.122-7.395-16.516-16.516-16.516z" fill="#e5646e"/><path d="m90.839 173.419c0-21.565 13.8-39.859 33.032-46.668-5.173-1.832-10.716-2.88-16.516-2.88-27.365 0-49.548 22.183-49.548 49.548s22.183 49.548 49.548 49.548c5.8 0 11.343-1.048 16.516-2.88-19.232-6.808-33.032-25.103-33.032-46.668z" fill="#f2f2f6"/><path d="m0 107.355v148.645h16.516v-165.161c-9.121 0-16.516 7.394-16.516 16.516z" fill="#db4655"/><g fill="#f2f2f6"><path d="m164.258 136.918-3.005-.026-2.021-4.423c-.454-.993-1.445-1.63-2.537-1.63-1.2 0-2.266.768-2.646 1.907l-1.383 4.146-3.996.031c-2.561.02-3.624 3.289-1.563 4.81l3.215 2.374-1.205 3.81c-.773 2.442 2.008 4.462 4.092 2.973l3.251-2.324 3.251 2.324c2.084 1.489 4.865-.531 4.092-2.973l-1.205-3.81 3.221-2.378c2.059-1.522.999-4.789-1.561-4.811z"/><path d="m133.806 158.853-3.005-.026-2.021-4.423c-.454-.993-1.445-1.63-2.537-1.63-1.2 0-2.266.768-2.646 1.907l-1.383 4.146-3.996.031c-2.561.02-3.624 3.289-1.563 4.81l3.215 2.374-1.205 3.81c-.773 2.442 2.008 4.462 4.092 2.973l3.251-2.324 3.251 2.324c2.084 1.489 4.865-.531 4.092-2.973l-1.205-3.81 3.221-2.378c2.059-1.521.999-4.788-1.561-4.811z"/><path d="m196 158.853-3.005-.026-2.021-4.423c-.454-.993-1.445-1.63-2.537-1.63-1.2 0-2.266.768-2.646 1.907l-1.383 4.146-3.996.031c-2.561.02-3.624 3.289-1.563 4.81l3.215 2.374-1.205 3.81c-.773 2.442 2.008 4.462 4.092 2.973l3.251-2.324 3.251 2.324c2.084 1.489 4.865-.531 4.092-2.973l-1.205-3.81 3.221-2.378c2.058-1.521.999-4.788-1.561-4.811z"/><path d="m145.935 194.208-3.005-.026-2.021-4.423c-.454-.993-1.445-1.63-2.537-1.63-1.2 0-2.266.768-2.646 1.907l-1.383 4.146-3.996.031c-2.561.02-3.624 3.289-1.563 4.81l3.215 2.374-1.205 3.81c-.773 2.442 2.008 4.462 4.092 2.973l3.251-2.324 3.251 2.324c2.084 1.489 4.865-.531 4.092-2.973l-1.205-3.81 3.221-2.378c2.059-1.521.999-4.788-1.561-4.811z"/><path d="m183.871 194.208-3.005-.026-2.021-4.423c-.454-.993-1.445-1.63-2.537-1.63-1.2 0-2.266.768-2.646 1.907l-1.383 4.146-3.996.031c-2.561.02-3.624 3.289-1.563 4.81l3.215 2.374-1.205 3.81c-.773 2.442 2.008 4.462 4.092 2.973l3.251-2.324 3.251 2.324c2.084 1.489 4.865-.531 4.092-2.973l-1.205-3.81 3.221-2.378c2.058-1.521.999-4.788-1.561-4.811z"/></g></g></svg>