<svg id="Capa_1" enable-background="new 0 0 512 512" height="512" viewBox="0 0 512 512" width="512" xmlns="http://www.w3.org/2000/svg"><g><path d="m495.484 90.839h-280.774l-32.043 26.495-34.021-26.495h-132.13l-6.032 16.516v288.462c0 9.122 7.395 16.516 16.516 16.516h468.484l16.516-7.688v-115.613l-17.667-32.699 17.667-33.365v-115.613c0-9.122-7.395-16.516-16.516-16.516z" fill="#e5646e"/><path d="m16.516 355.097v-264.258c-9.121 0-16.516 7.394-16.516 16.516v115.613l8.5 10.032v49.5l-8.5 6.532v115.613c0 9.122 7.395 16.516 16.516 16.516h132.129l8.355-9.411h49.75l7.96 9.411h280.774c9.121 0 16.516-7.395 16.516-16.516h-445.935c-27.365 0-49.549-22.183-49.549-49.548z" fill="#db4655"/><path d="m512 222.968h-297.29v-132.129h-16.516l-15.194 13.828-17.839-13.828h-16.516v132.129h-132.129l-7.766 10.032v48.5l7.766 7.532h132.129v115.613l8.605 7.266h50.25l7.21-7.266v-115.613h297.29v-16.516l-8.75-15.766 8.75-17.266z" fill="#f2f2f6"/><path d="m0 289.032h16.516v-66.064h-16.516v16.516l8.258 16.516-8.258 16.516z" fill="#e1e1e6"/><path d="m214.71 421.161h-16.516l-16.194-7.911-16.839 7.911h-16.516v-16.516h66.065z" fill="#e1e1e6"/><path d="m512 239.484h-313.806v-148.645h-33.033v148.645h-148.645l-6.766 6.266v20l6.766 6.766h148.645v132.129l16.516 8.258 16.517-8.258v-132.129h313.806z" fill="#5055a0"/><g fill="#3f3f8f"><path d="m0 239.484h16.516v33.032h-16.516z"/><path d="m165.161 404.645h33.032v16.516h-33.032z"/></g></g></svg>