<svg id="Capa_1" enable-background="new 0 0 512 512" height="512" viewBox="0 0 512 512" width="512" xmlns="http://www.w3.org/2000/svg"><g><g><path d="m495.484 90.839h-289.032l-7.452 8.494h-33.333l-8.764-8.495h-140.387l-8.699 10.162v294.151c0 9.122 7.395 16.516 16.516 16.516h477.667l10-7.021v-123.872l-8.5-10.024v-30.5l8.5-9.024v-123.871c0-9.122-7.395-16.516-16.516-16.516z" fill="#f2f2f6"/><path d="m16.516 355.097v-264.258c-9.121 0-16.516 7.394-16.516 16.516v123.871l6.5 7.774v31.25l-6.5 10.524v123.871c0 9.122 7.395 16.516 16.516 16.516h140.387l9.847-7.411h30.5l9.202 7.411h289.032c9.121 0 16.516-7.395 16.516-16.516h-445.935c-27.365 0-49.549-22.183-49.549-49.548z" fill="#e1e1e6"/><path d="m512 231.226h-305.548v-140.387h-49.549v140.387h-140.387l-8.266 12.524v24.5l8.266 12.524h140.387v123.871l9.847 7.605h31.75l7.952-7.605v-123.871h305.548z" fill="#5055a0"/><g fill="#3f3f8f"><path d="m0 231.226h16.516v49.548h-16.516z"/><path d="m156.903 404.645h49.548v16.516h-49.548z"/></g></g></g></svg>