<svg id="Capa_1" enable-background="new 0 0 512 512" height="512" viewBox="0 0 512 512" width="512" xmlns="http://www.w3.org/2000/svg"><g><g><g><path d="m512 200.946v-93.591c0-9.122-7.395-16.516-16.516-16.516h-478.968l-8.849 16.516v93.591l17.104 22.022h462.456z" fill="#ffe07d"/><path d="m0 107.355v93.591l16.516 14.683v-124.79c-9.121 0-16.516 7.394-16.516 16.516z" fill="#ffd064"/><path d="m7.817 311.054v86.43c0 9.122 7.395 16.516 16.516 16.516h471.151l16.516-9.355v-93.591l-24.77-22.022h-462.456z" fill="#e5646e"/><path d="m16.516 355.097v-58.724l-16.516 14.681v93.591c0 9.122 7.395 16.516 16.516 16.516h478.968c9.121 0 16.516-7.394 16.516-16.516h-445.935c-27.365 0-49.549-22.183-49.549-49.548z" fill="#db4655"/><path d="m8.667 297 7.849 14.053h495.484v-110.107h-495.484l-7.849 17.387z" fill="#5055a0"/><path d="m0 200.946h16.516v110.107h-16.516z" fill="#3f3f8f"/></g><path d="m323.468 269.132c-1.984-4.129-.169-9 3.96-10.984 4.129-1.903 9.089-.081 10.984 4.048 1.984 4.129.169 9-4.04 10.984-1.081.492-2.234.742-3.387.742-3.138 0-6.114-1.734-7.517-4.79zm-145.508 2.887c-4.129-1.984-5.782-6.935-3.798-10.984 1.984-4.129 6.935-5.863 10.984-3.879 4.129 1.984 5.863 6.935 3.879 11.065-1.403 2.895-4.379 4.629-7.516 4.629-1.154-.001-2.396-.251-3.549-.831zm129.242-25.436c-3.306-3.218-3.468-8.419-.331-11.726 3.218-3.298 8.419-3.387 11.726-.242 3.298 3.137 3.387 8.339.242 11.637-1.565 1.734-3.798 2.565-5.944 2.565-2.064 0-4.129-.742-5.693-2.234zm-113.307-1.234c-3.137-3.306-2.887-8.589.5-11.645 3.298-3.137 8.5-2.895 11.645.492 3.048 3.306 2.887 8.508-.5 11.645-1.565 1.403-3.548 2.145-5.532 2.145-2.226.001-4.46-.903-6.113-2.637zm89.936-13.879c-4.298-1.734-6.282-6.524-4.548-10.734 1.653-4.29 6.444-6.274 10.742-4.54 4.21 1.653 6.274 6.524 4.54 10.734-1.323 3.226-4.379 5.121-7.677 5.121-.993 0-2.065-.161-3.057-.581zm-65.323-5.112c-1.653-4.218.411-9.008 4.71-10.653 4.21-1.653 9 .411 10.645 4.702 1.653 4.21-.411 9-4.702 10.653-.992.411-1.984.581-2.976.581-3.298-.001-6.443-1.985-7.677-5.283zm38.065-.25c-4.621 0-8.258-3.798-8.258-8.339.089-4.548 3.806-8.177 8.347-8.177 4.54 0 8.169 3.718 8.169 8.339 0 4.539-3.71 8.177-8.258 8.177z" fill="#fff"/></g><g fill="#fff"><circle cx="173.581" cy="294.563" r="8.258"/><circle cx="338.411" cy="295.757" r="8.258"/></g></g></svg>