<svg id="Capa_1" enable-background="new 0 0 512 512" height="512" viewBox="0 0 512 512" width="512" xmlns="http://www.w3.org/2000/svg"><g><path d="m495.484 140.387h-485.484v231.226h485.484c9.122 0 16.516-7.395 16.516-16.516v-198.194c0-9.121-7.395-16.516-16.516-16.516z" fill="#f2f2f6"/><path d="m0 156.903v198.194l8.667 6.903 7.849-6.903v-208.097z" fill="#e1e1e6"/><path d="m308.449 256 18.89-32.718c1.476-2.556 1.476-5.702 0-8.258s-4.202-4.129-7.153-4.129h-37.779l-19.254-33.347c-2.952-5.113-11.355-5.113-14.306 0l-19.254 33.347h-37.779c-2.952 0-5.677 1.573-7.153 4.129s-1.476 5.702 0 8.258l18.89 32.718-18.89 32.718c-1.476 2.556-1.476 5.702 0 8.258s4.202 4.129 7.153 4.129h37.779l19.254 33.347c1.476 2.556 4.202 4.129 7.153 4.129 2.952 0 5.677-1.573 7.153-4.129l19.254-33.347h37.779c2.952 0 5.677-1.573 7.153-4.129s1.476-5.702 0-8.258zm-2.57-28.589-6.968 12.07-6.968-12.07zm-16.505 28.589-16.506 28.589h-33.737l-16.505-28.589 16.506-28.589h33.737zm-33.374-57.806 7.333 12.702h-14.666zm-49.879 29.217h13.936l-6.968 12.07zm0 57.178 6.968-12.07 6.968 12.07zm49.879 29.217-7.333-12.702h14.666zm35.943-29.217 6.968-12.07 6.968 12.07z" fill="#5055a0"/><path d="m512 107.355c0-9.122-7.395-16.516-16.516-16.516h-478.968l-10.183 16.516 10.183 49.548h495.484z" fill="#5055a0"/><path d="m0 107.355v49.548h16.516v-66.064c-9.121 0-16.516 7.394-16.516 16.516z" fill="#3f3f8f"/><path d="m16.516 355.097-6.032 42.054c0 9.121 7.395 16.516 16.516 16.516h468.484l16.516-9.022v-49.548z" fill="#5055a0"/><path d="m495.484 421.161c9.121 0 16.516-7.395 16.516-16.516h-445.935c-27.365 0-49.548-22.183-49.548-49.548h-16.517v49.548c0 9.121 7.395 16.516 16.516 16.516z" fill="#3f3f8f"/></g></svg>