<svg id="Capa_1" enable-background="new 0 0 512 512" height="512" viewBox="0 0 512 512" width="512" xmlns="http://www.w3.org/2000/svg"><g><path d="m495.484 90.839h-239.484l-248.183 138.161v166.151c0 9.122 7.395 16.516 16.516 16.516h477.667l10-7.021v-297.29c0-9.123-7.395-16.517-16.516-16.517z" fill="#e5646e"/><path d="m16.516 355.097v-115.613l-16.516 16.516v148.645c0 9.122 7.395 16.516 16.516 16.516h478.968c9.121 0 16.516-7.395 16.516-16.516h-445.935c-27.365 0-49.549-22.183-49.549-49.548z" fill="#db4655"/><path d="m16.516 90.839-10.849 16.516v135.645l10.849 13h231.226c4.561 0 8.258-3.698 8.258-8.258v-156.903z" fill="#5055a0"/><path d="m177.548 165.161h-29.611l20.939-20.939c3.227-3.228 3.227-8.451 0-11.679-3.228-3.227-8.451-3.227-11.679 0l-20.939 20.939v-29.611c0-4.565-3.694-8.258-8.258-8.258s-8.258 3.694-8.258 8.258v29.611l-20.939-20.939c-3.228-3.227-8.451-3.227-11.679 0-3.227 3.228-3.227 8.451 0 11.679l20.939 20.939h-29.611c-4.565 0-8.258 3.694-8.258 8.258s3.694 8.258 8.258 8.258h29.611l-20.939 20.939c-3.227 3.227-3.227 8.451 0 11.678 3.228 3.228 8.451 3.228 11.679 0l20.939-20.939v29.612c0 4.565 3.694 8.258 8.258 8.258s8.258-3.694 8.258-8.258v-29.612l20.939 20.939c3.228 3.228 8.451 3.228 11.679 0 3.227-3.227 3.227-8.451 0-11.678l-20.939-20.939h29.611c4.565 0 8.258-3.694 8.258-8.258s-3.693-8.258-8.258-8.258z" fill="#f2f2f6"/><circle cx="128" cy="173.419" fill="#fff" r="19.819"/><path d="m16.516 90.839c-9.121 0-16.516 7.394-16.516 16.516v148.645h16.516z" fill="#3f3f8f"/></g></svg>