<svg id="Capa_1" enable-background="new 0 0 512 512" height="512" viewBox="0 0 512 512" width="512" xmlns="http://www.w3.org/2000/svg"><g><path d="m495.484 90.839h-478.968c-4.025 0-7.714 1.44-10.58 3.833l88.515 186.103 417.549-24.775v-148.645c0-9.122-7.395-16.516-16.516-16.516z" fill="#5055a0"/><path d="m6.333 256v157h489.151l16.516-8.355v-148.645z" fill="#e5646e"/><path d="m66.065 404.645c-10.185 0-19.652-3.073-27.525-8.342l-28.467-3.291-4.134 24.318c2.865 2.392 6.553 3.831 10.577 3.831h478.968c9.121 0 16.516-7.395 16.516-16.516z" fill="#db4655"/><path d="m16.516 101.494-5.016 5.861v285.657l27.039 3.291 217.461-140.303z" fill="#f2f2f6"/><path d="m38.544 396.294c-13.28-8.888-22.028-24.018-22.028-41.198v-253.602l-10.581-6.823c-3.639 3.029-5.935 7.578-5.935 12.684v297.29c0 5.105 2.298 9.655 5.937 12.684z" fill="#e1e1e6"/><g fill="#ffe07d"><path d="m135.463 247.742h-11.273c-3.564 0-5.348-4.309-2.828-6.828l8.142-8.142c3.121-3.121 3.486-8.202.57-11.515-3.194-3.629-8.72-3.761-12.085-.396l-8.45 8.45c-2.52 2.52-6.828.735-6.828-2.828v-11.494c0-4.401-3.325-8.24-7.716-8.519-4.81-.306-8.8 3.497-8.8 8.241v11.552c0 3.564-4.309 5.348-6.828 2.828l-8.031-8.031c-3.121-3.121-8.202-3.486-11.515-.57-3.629 3.194-3.761 8.72-.396 12.084l8.34 8.34c2.52 2.52.735 6.828-2.828 6.828h-11.497c-4.401 0-8.24 3.325-8.519 7.716-.306 4.81 3.497 8.8 8.241 8.8h11.773c3.564 0 5.348 4.309 2.828 6.828l-8.142 8.142c-3.121 3.121-3.486 8.201-.57 11.514 3.194 3.629 8.721 3.761 12.085.397l8.23-8.23c2.52-2.52 6.828-.735 6.828 2.828v11.274c0 4.401 3.325 8.24 7.716 8.519 4.81.306 8.8-3.497 8.8-8.241v-11.773c0-3.564 4.309-5.348 6.828-2.828l8.252 8.252c3.121 3.121 8.202 3.486 11.515.57 3.629-3.194 3.761-8.721.396-12.085l-8.339-8.339c-2.52-2.52-.735-6.828 2.828-6.828h11.552c4.744 0 8.547-3.989 8.241-8.8-.28-4.391-4.119-7.716-8.52-7.716z"/><path d="m192.126 245.181-5.431-.048-3.653-7.995c-.82-1.795-2.612-2.946-4.585-2.946-2.17 0-4.096 1.388-4.782 3.446l-2.499 7.494-7.223.056c-4.63.036-6.55 5.944-2.825 8.695l5.81 4.291-2.179 6.886c-1.397 4.414 3.63 8.066 7.396 5.374l5.876-4.2 5.876 4.2c3.767 2.692 8.793-.959 7.396-5.374l-2.179-6.886 5.822-4.299c3.723-2.749 1.808-8.654-2.82-8.694z"/><path d="m60.632 169.04-5.431-.048-3.653-7.995c-.82-1.795-2.612-2.946-4.585-2.946-2.17 0-4.096 1.388-4.782 3.446l-2.499 7.494-7.223.056c-4.63.036-6.55 5.944-2.825 8.695l5.81 4.291-2.179 6.886c-1.397 4.414 3.629 8.066 7.396 5.374l5.876-4.2 5.876 4.2c3.767 2.692 8.793-.959 7.396-5.374l-2.179-6.886 5.822-4.299c3.722-2.748 1.807-8.653-2.82-8.694z"/><path d="m60.632 326.413-5.431-.048-3.653-7.995c-.82-1.795-2.612-2.946-4.585-2.946-2.17 0-4.096 1.388-4.782 3.446l-2.499 7.494-7.223.056c-4.63.036-6.55 5.944-2.825 8.695l5.81 4.291-2.179 6.886c-1.397 4.414 3.629 8.066 7.396 5.374l5.876-4.2 5.876 4.2c3.767 2.692 8.793-.959 7.396-5.374l-2.179-6.886 5.822-4.299c3.722-2.748 1.807-8.653-2.82-8.694z"/></g></g></svg>