<svg id="Capa_1" enable-background="new 0 0 512 512" height="512" viewBox="0 0 512 512" width="512" xmlns="http://www.w3.org/2000/svg"><g><path d="m495.484 90.839h-478.968l-8.849 16.516v165.161h487.817c9.122 0 16.516-7.395 16.516-16.516v-148.645c0-9.122-7.395-16.516-16.516-16.516z" fill="#ffe07d"/><path d="m0 107.355v148.645l16.516 11.221v-176.382c-9.121 0-16.516 7.394-16.516 16.516z" fill="#ffd064"/><path d="m9.817 327v68.817c0 9.121 7.395 16.516 16.516 16.516h469.151l16.516-7.688v-66.065l-18.333-11.58z" fill="#e5646e"/><path d="m512 404.645h-445.935c-27.365 0-49.548-22.183-49.548-49.548v-27.097l-16.517 10.581v66.065c0 9.121 7.395 16.516 16.516 16.516h478.968c9.121-.001 16.516-7.395 16.516-16.517z" fill="#db4655"/><path d="m512 256h-495.484l-10.516 15.333v52l10.516 15.248h495.484z" fill="#5055a0"/><path d="m0 256h16.516v82.581h-16.516z" fill="#3f3f8f"/></g></svg>