<svg id="Capa_1" enable-background="new 0 0 512 512" height="512" viewBox="0 0 512 512" width="512" xmlns="http://www.w3.org/2000/svg"><g><path d="m495.484 90.839h-478.968l-8.699 10.161v294.151c0 9.122 7.395 16.516 16.516 16.516h477.667l10-7.021v-297.29c0-9.123-7.395-16.517-16.516-16.517z" fill="#e5646e"/><path d="m16.516 355.097v-264.258c-9.121 0-16.516 7.394-16.516 16.516v297.29c0 9.122 7.395 16.516 16.516 16.516h478.968c9.121 0 16.516-7.395 16.516-16.516h-445.935c-27.365 0-49.549-22.183-49.549-49.548z" fill="#db4655"/><g fill="#ffe07d"><path d="m144.611 186.742-26.589-.233-13.055-28.57c-1.233-3.699-6.465-3.699-7.699 0l-9.528 28.57-30.116.233c-3.899.03-5.516 5.006-2.379 7.323l24.227 17.891-9.084 28.714c-1.176 3.718 3.056 6.793 6.229 4.526l24.502-17.513 24.502 17.513c3.172 2.267 7.405-.808 6.229-4.526l-9.084-28.714 24.227-17.891c3.134-2.317 1.517-7.293-2.382-7.323z"/><path d="m176.121 133.827-5.431-.048-3.653-7.995c-.82-1.795-2.612-2.946-4.585-2.946-2.17 0-4.096 1.388-4.782 3.446l-2.499 7.494-7.223.056c-4.63.036-6.55 5.944-2.825 8.695l5.81 4.291-2.179 6.886c-1.397 4.414 3.629 8.066 7.396 5.374l5.876-4.2 5.876 4.2c3.767 2.692 8.793-.959 7.396-5.374l-2.179-6.886 5.822-4.299c3.722-2.748 1.807-8.654-2.82-8.694z"/><path d="m176.121 264.924-5.431-.048-3.653-7.995c-.82-1.795-2.612-2.946-4.585-2.946-2.17 0-4.096 1.388-4.782 3.446l-2.499 7.494-7.223.056c-4.63.036-6.55 5.944-2.825 8.695l5.81 4.291-2.179 6.886c-1.397 4.414 3.629 8.066 7.396 5.374l5.876-4.2 5.876 4.2c3.767 2.692 8.793-.959 7.396-5.374l-2.179-6.886 5.822-4.299c3.722-2.749 1.807-8.654-2.82-8.694z"/><path d="m214.658 224.321-5.431-.048-3.653-7.995c-.82-1.795-2.612-2.946-4.585-2.946-2.17 0-4.096 1.388-4.782 3.446l-2.499 7.494-7.223.056c-4.63.036-6.55 5.944-2.825 8.695l5.81 4.291-2.179 6.886c-1.397 4.414 3.63 8.066 7.396 5.374l5.876-4.2 5.876 4.2c3.767 2.692 8.793-.959 7.396-5.374l-2.179-6.886 5.822-4.299c3.723-2.748 1.807-8.653-2.82-8.694z"/><path d="m214.658 170.644-5.431-.048-3.653-7.995c-.82-1.795-2.612-2.946-4.585-2.946-2.17 0-4.096 1.388-4.782 3.446l-2.499 7.494-7.223.056c-4.63.036-6.55 5.944-2.825 8.695l5.81 4.291-2.179 6.886c-1.397 4.414 3.63 8.066 7.396 5.374l5.876-4.2 5.876 4.2c3.767 2.692 8.793-.959 7.396-5.374l-2.179-6.886 5.822-4.299c3.723-2.748 1.807-8.653-2.82-8.694z"/></g></g></svg>