<svg id="Capa_1" enable-background="new 0 0 512 512" height="512" viewBox="0 0 512 512" width="512" xmlns="http://www.w3.org/2000/svg"><g><g><g><path d="m512 200.946v-93.591c0-9.122-7.395-16.516-16.516-16.516h-478.968l-8.849 16.516v93.591l17.104 22.022h462.456z" fill="#ffc269"/><path d="m0 107.355v93.591l16.516 14.683v-124.79c-9.121 0-16.516 7.394-16.516 16.516z" fill="#ffa95f"/><path d="m7.817 311.054v86.43c0 9.122 7.395 16.516 16.516 16.516h471.151l16.516-9.355v-93.591l-24.77-22.022h-462.456z" fill="#95cc81"/><path d="m16.516 355.097v-58.724l-16.516 14.681v93.591c0 9.122 7.395 16.516 16.516 16.516h478.968c9.121 0 16.516-7.394 16.516-16.516h-445.935c-27.365 0-49.549-22.183-49.549-49.548z" fill="#7dbd80"/><path d="m8.667 297 7.849 14.053h495.484v-110.107h-495.484l-7.849 17.387z" fill="#f2f2f6"/><path d="m0 200.946h16.516v110.107h-16.516z" fill="#e1e1e6"/></g></g><path d="m286.604 237.07c-2.939-4.734-6.943-8.738-11.678-11.677l-10.668 10.669v-15.096c-2.654-.625-5.416-.966-8.258-.966s-5.604.341-8.258.967v15.096l-10.668-10.669c-4.735 2.938-8.739 6.943-11.678 11.677l10.67 10.672h-15.1c-.625 2.653-.966 5.415-.966 8.257s.341 5.604.967 8.258h15.1l-10.67 10.672c2.939 4.734 6.943 8.738 11.678 11.677l10.668-10.669v15.096c2.654.625 5.416.967 8.258.967s5.604-.341 8.258-.967v-15.096l10.668 10.669c4.735-2.938 8.739-6.942 11.678-11.677l-10.67-10.672h15.1c.625-2.654.967-5.416.967-8.258s-.341-5.604-.967-8.258h-15.1z" fill="#5055a0"/><g><path d="m256 305.548c-27.323 0-49.548-22.226-49.548-49.548s22.226-49.548 49.548-49.548 49.548 22.226 49.548 49.548-22.225 49.548-49.548 49.548zm0-82.58c-18.218 0-33.032 14.819-33.032 33.032s14.815 33.032 33.032 33.032 33.032-14.819 33.032-33.032-14.814-33.032-33.032-33.032z" fill="#3f3f8f"/></g></g></svg>