<svg id="Capa_1" enable-background="new 0 0 512 512" height="512" viewBox="0 0 512 512" width="512" xmlns="http://www.w3.org/2000/svg"><g><path d="m495.484 90.839h-478.968l-8.699 10.161v294.151c0 9.122 7.395 16.516 16.516 16.516h477.667l10-7.021v-297.29c0-9.123-7.395-16.517-16.516-16.517z" fill="#e5646e"/><path d="m16.516 355.097v-264.258c-9.121 0-16.516 7.394-16.516 16.516v297.29c0 9.122 7.395 16.516 16.516 16.516h478.968c9.121 0 16.516-7.395 16.516-16.516h-445.935c-27.365 0-49.549-22.183-49.549-49.548z" fill="#db4655"/><path d="m189.935 322.065c-36.486 0-66.065-29.578-66.065-66.065s29.578-66.065 66.065-66.065c13.649 0 26.329 4.143 36.858 11.234-15.126-16.989-37.096-27.751-61.632-27.751-45.608 0-82.581 36.972-82.581 82.581 0 45.608 36.973 82.581 82.581 82.581 24.535 0 46.506-10.762 61.631-27.75-10.528 7.092-23.208 11.235-36.857 11.235z" fill="#fff"/><path d="m286.643 247.021-15.328-.135-7.526-16.47c-.711-2.132-3.727-2.132-4.438 0l-5.493 16.47-17.361.135c-2.247.017-3.18 2.886-1.371 4.221l13.966 10.313-5.237 16.553c-.678 2.143 1.762 3.916 3.591 2.609l14.124-10.096 14.124 10.096c1.829 1.307 4.269-.466 3.591-2.609l-5.237-16.553 13.966-10.313c1.808-1.336.876-4.204-1.371-4.221z" fill="#f2f2f6"/></g></svg>