<svg id="Capa_1" enable-background="new 0 0 512 512" height="512" viewBox="0 0 512 512" width="512" xmlns="http://www.w3.org/2000/svg"><g><path d="m495.484 90.839h-478.968l-8.699 10.161v294.151c0 9.122 7.395 16.516 16.516 16.516h477.667l10-7.021v-297.29c0-9.123-7.395-16.517-16.516-16.517z" fill="#e5646e"/><path d="m16.516 355.097v-264.258c-9.121 0-16.516 7.394-16.516 16.516v297.29c0 9.122 7.395 16.516 16.516 16.516h478.968c9.121 0 16.516-7.395 16.516-16.516h-445.935c-27.365 0-49.549-22.183-49.549-49.548z" fill="#db4655"/><path d="m371.21 225.137c-1.105-3.403-4.274-5.71-7.855-5.71-.008 0-.008 0-.016 0l-76.173.127-23.303-72.401c-1.097-3.411-4.274-5.726-7.863-5.726s-6.766 2.315-7.863 5.726l-23.323 72.484-76.145-.21c-.008 0-.016 0-.024 0-3.581 0-6.75 2.306-7.855 5.71-1.105 3.403.113 7.145 3.016 9.242l61.724 44.589-23.724 72.346c-1.121 3.403.089 7.145 2.992 9.25 2.911 2.121 6.831 2.097 9.726-.008l61.476-44.927 61.476 44.927c1.452 1.056 3.161 1.589 4.871 1.589 1.702 0 3.403-.524 4.855-1.581 2.903-2.105 4.113-5.847 2.992-9.25l-23.726-72.347 61.726-44.589c2.903-2.096 4.121-5.83 3.016-9.241zm-115.21 70.057-31.032-22.54 11.855-36.484h38.355l11.855 36.484zm0-118.557 13.842 43.016h-27.684zm-36.534 59.502-8.558 26.337-36.633-26.459zm.108 53.007 22.404 16.275-36.485 26.66zm86.934 42.935-36.485-26.66 22.404-16.275zm-5.416-69.607-8.583-26.412 45.249-.078z" fill="#95cc81"/></g></svg>