<svg id="Capa_1" enable-background="new 0 0 512 512" height="512" viewBox="0 0 512 512" width="512" xmlns="http://www.w3.org/2000/svg"><g><path d="m495.484 90.839h-478.968l-8.699 10.161v294.151c0 9.122 7.395 16.516 16.516 16.516h477.667l10-7.021v-297.29c0-9.123-7.395-16.517-16.516-16.517z" fill="#5055a0"/><path d="m16.516 355.097v-264.258c-9.121 0-16.516 7.394-16.516 16.516v297.29c0 9.122 7.395 16.516 16.516 16.516h478.968c9.121 0 16.516-7.395 16.516-16.516h-445.935c-27.365 0-49.549-22.183-49.549-49.548z" fill="#3f3f8f"/><g fill="#ffe07d"><path d="m270.119 139.439-5.431-.048-3.653-7.995c-.82-1.795-2.612-2.946-4.585-2.946-2.17 0-4.096 1.388-4.782 3.446l-2.499 7.494-7.223.056c-4.63.036-6.55 5.944-2.825 8.695l5.81 4.291-2.179 6.886c-1.397 4.414 3.629 8.066 7.396 5.374l5.876-4.2 5.876 4.2c3.767 2.692 8.793-.959 7.396-5.374l-2.179-6.886 5.822-4.299c3.723-2.748 1.807-8.653-2.82-8.694z"/><path d="m162.831 246.45-5.431-.048-3.653-7.995c-.82-1.795-2.612-2.946-4.585-2.946-2.17 0-4.096 1.388-4.782 3.446l-2.499 7.494-7.223.056c-4.63.036-6.55 5.944-2.825 8.695l5.81 4.291-2.179 6.886c-1.397 4.414 3.63 8.066 7.396 5.374l5.876-4.2 5.876 4.2c3.767 2.692 8.793-.959 7.396-5.374l-2.179-6.886 5.822-4.299c3.723-2.748 1.807-8.653-2.82-8.694z"/><path d="m377.421 246.353-5.431-.048-3.653-7.995c-.82-1.795-2.612-2.946-4.585-2.946-2.17 0-4.096 1.388-4.782 3.446l-2.499 7.494-7.223.056c-4.63.036-6.55 5.944-2.825 8.695l5.81 4.291-2.179 6.886c-1.397 4.414 3.63 8.066 7.396 5.374l5.876-4.2 5.876 4.2c3.767 2.692 8.793-.959 7.396-5.374l-2.179-6.886 5.822-4.299c3.723-2.748 1.808-8.653-2.82-8.694z"/><path d="m362.715 193.905-5.431-.048-3.653-7.995c-.82-1.795-2.612-2.946-4.585-2.946-2.17 0-4.096 1.388-4.782 3.446l-2.499 7.494-7.223.056c-4.63.036-6.55 5.944-2.825 8.695l5.81 4.291-2.179 6.886c-1.397 4.414 3.629 8.066 7.396 5.374l5.876-4.2 5.876 4.2c3.767 2.692 8.793-.959 7.396-5.374l-2.179-6.886 5.822-4.299c3.722-2.748 1.807-8.653-2.82-8.694z"/><path d="m321.51 155.798-5.431-.048-3.653-7.995c-.82-1.795-2.612-2.946-4.585-2.946-2.17 0-4.096 1.388-4.782 3.446l-2.499 7.494-7.223.056c-4.63.036-6.55 5.944-2.825 8.695l5.81 4.291-2.179 6.886c-1.397 4.414 3.63 8.066 7.396 5.374l5.876-4.2 5.876 4.2c3.767 2.692 8.793-.959 7.396-5.374l-2.179-6.886 5.822-4.299c3.723-2.748 1.808-8.654-2.82-8.694z"/><path d="m218.67 155.798-5.431-.048-3.653-7.995c-.82-1.795-2.612-2.946-4.585-2.946-2.17 0-4.096 1.388-4.782 3.446l-2.499 7.494-7.223.056c-4.63.036-6.55 5.944-2.825 8.695l5.81 4.291-2.179 6.886c-1.397 4.414 3.629 8.066 7.396 5.374l5.876-4.2 5.876 4.2c3.767 2.692 8.793-.959 7.396-5.374l-2.179-6.886 5.822-4.299c3.723-2.748 1.808-8.654-2.82-8.694z"/><path d="m321.575 341.216-5.431-.048-3.653-7.995c-.82-1.795-2.612-2.946-4.585-2.946-2.17 0-4.096 1.388-4.782 3.446l-2.499 7.494-7.223.056c-4.63.036-6.55 5.944-2.825 8.695l5.81 4.291-2.179 6.886c-1.397 4.414 3.629 8.066 7.396 5.374l5.876-4.2 5.876 4.2c3.767 2.692 8.793-.959 7.396-5.374l-2.179-6.886 5.822-4.299c3.723-2.749 1.808-8.654-2.82-8.694z"/><path d="m218.735 341.216-5.431-.048-3.653-7.995c-.82-1.795-2.612-2.946-4.585-2.946-2.17 0-4.096 1.388-4.782 3.446l-2.499 7.494-7.223.056c-4.63.036-6.55 5.944-2.825 8.695l5.81 4.291-2.179 6.886c-1.397 4.414 3.63 8.066 7.396 5.374l5.876-4.2 5.876 4.2c3.767 2.692 8.793-.959 7.396-5.374l-2.179-6.886 5.822-4.299c3.723-2.749 1.807-8.654-2.82-8.694z"/><path d="m177.469 193.905-5.431-.048-3.653-7.995c-.82-1.795-2.612-2.946-4.585-2.946-2.17 0-4.096 1.388-4.782 3.446l-2.499 7.494-7.223.056c-4.63.036-6.55 5.944-2.825 8.695l5.81 4.291-2.179 6.886c-1.397 4.414 3.629 8.066 7.396 5.374l5.876-4.2 5.876 4.2c3.767 2.692 8.793-.959 7.396-5.374l-2.179-6.886 5.822-4.299c3.723-2.748 1.807-8.653-2.82-8.694z"/><path d="m362.715 302.226-5.431-.048-3.653-7.995c-.82-1.795-2.612-2.946-4.585-2.946-2.17 0-4.096 1.388-4.782 3.446l-2.499 7.494-7.223.056c-4.63.036-6.55 5.944-2.825 8.695l5.81 4.291-2.179 6.886c-1.397 4.414 3.629 8.066 7.396 5.374l5.876-4.2 5.876 4.2c3.767 2.692 8.793-.959 7.396-5.374l-2.179-6.886 5.822-4.299c3.722-2.749 1.807-8.654-2.82-8.694z"/><path d="m177.469 302.226-5.431-.048-3.653-7.995c-.82-1.795-2.612-2.946-4.585-2.946-2.17 0-4.096 1.388-4.782 3.446l-2.499 7.494-7.223.056c-4.63.036-6.55 5.944-2.825 8.695l5.81 4.291-2.179 6.886c-1.397 4.414 3.629 8.066 7.396 5.374l5.876-4.2 5.876 4.2c3.767 2.692 8.793-.959 7.396-5.374l-2.179-6.886 5.822-4.299c3.723-2.749 1.807-8.654-2.82-8.694z"/><path d="m270.119 354.923-5.431-.048-3.653-7.995c-.82-1.795-2.612-2.946-4.585-2.946-2.17 0-4.096 1.388-4.782 3.446l-2.499 7.494-7.223.056c-4.63.036-6.55 5.944-2.825 8.695l5.81 4.291-2.179 6.886c-1.397 4.414 3.629 8.066 7.396 5.374l5.876-4.2 5.876 4.2c3.767 2.692 8.793-.959 7.396-5.374l-2.179-6.886 5.822-4.299c3.723-2.748 1.807-8.653-2.82-8.694z"/></g></g></svg>