<svg id="Capa_1" enable-background="new 0 0 512 512" height="512" viewBox="0 0 512 512" width="512" xmlns="http://www.w3.org/2000/svg"><g><g><g><path d="m512 200.946v-93.591c0-9.122-7.395-16.516-16.516-16.516h-478.968l-8.849 16.516v93.591l17.104 22.022h462.456z" fill="#a4ccff"/><path d="m0 107.355v93.591l16.516 14.683v-124.79c-9.121 0-16.516 7.394-16.516 16.516z" fill="#8bb3ea"/><path d="m7.817 311.054v86.43c0 9.122 7.395 16.516 16.516 16.516h471.151l16.516-9.355v-93.591l-24.77-22.022h-462.456z" fill="#a4ccff"/><path d="m16.516 355.097v-58.724l-16.516 14.681v93.591c0 9.122 7.395 16.516 16.516 16.516h478.968c9.121 0 16.516-7.394 16.516-16.516h-445.935c-27.365 0-49.549-22.183-49.549-49.548z" fill="#8bb3ea"/><path d="m8.667 297 7.849 14.053h495.484v-110.107h-495.484l-7.849 17.387z" fill="#f2f2f6"/><path d="m0 200.946h16.516v110.107h-16.516z" fill="#e1e1e6"/></g></g><path d="m288.736 265.364-16.22-9.364 16.22-9.364c3.953-2.282 5.305-7.328 3.023-11.281s-7.328-5.305-11.281-3.023l-16.22 9.364v-18.729c0-4.565-3.694-8.258-8.258-8.258s-8.258 3.694-8.258 8.258v18.729l-16.22-9.364c-3.953-2.282-8.998-.93-11.281 3.023-2.282 3.953-.93 8.998 3.023 11.281l16.22 9.364-16.22 9.364c-3.953 2.282-5.305 7.328-3.023 11.281s7.328 5.305 11.281 3.023l16.22-9.364v18.729c0 4.565 3.694 8.258 8.258 8.258s8.258-3.694 8.258-8.258v-18.729l16.22 9.364c3.953 2.282 8.999.93 11.281-3.023s.93-8.998-3.023-11.281z" fill="#ffc269"/><circle cx="256" cy="256" fill="#ffe07d" r="16.516"/></g></svg>