<svg id="Capa_1" enable-background="new 0 0 511.974 511.974" height="512" viewBox="0 0 511.974 511.974" width="512" xmlns="http://www.w3.org/2000/svg"><g><path d="m511.831 198.18-505.831-21.193v139.333l492 4.667 13.831-15.452z" fill="#f2f2f6"/><path d="m0 198.18v107.355l16.516 9.546v-125.642z" fill="#e1e1e6"/><path d="m511.83 322.051c-10.163-4.565-12.83-4.231-28.428 0-13.727 3.723-14.223-8.258-28.445-8.258-14.209 0-14.209 8.258-28.419 8.258-14.217 0-14.217-8.258-28.434-8.258-14.201 0-14.201 8.258-28.401 8.258-14.216 0-14.216-8.258-28.433-8.258-14.2 0-14.2 8.258-28.4 8.258-14.219 0-14.219-8.258-28.438-8.258-14.215 0-14.215 8.258-28.43 8.258h-.17c-14.214 0-14.214-8.258-28.428-8.258-14.223 0-14.223 8.258-28.445 8.258-14.209 0-14.209-8.258-28.419-8.258-14.217 0-14.217 8.258-28.434 8.258-14.201 0-14.201-8.258-28.401-8.258-14.216 0-14.216 8.258-28.433 8.258-14.2 0-14.2-8.258-28.4-8.258-14.219 0-14.219 8.258-28.438 8.258-14.215 0-5.731-8.258-19.946-8.258v84.011c0 9.122 7.395 16.516 16.516 16.516h470.458s16.542-9.688 16.516-9.714z" fill="#e5646e"/><path d="m286.992 228.914c-3.016-3.452-8.242-3.79-11.653-.782-3.435 3.008-3.782 8.226-.782 11.653 2.839 3.242 6.218 8.685 6.218 16.202 0 10.752-6.924 19.833-16.516 23.253v-56.285c0-4.565-3.694-8.258-8.258-8.258s-8.258 3.694-8.258 8.258v56.284c-9.592-3.42-16.516-12.501-16.516-23.252 0-7.516 3.379-12.96 6.218-16.202 3-3.427 2.653-8.645-.782-11.653-3.419-3.008-8.645-2.669-11.653.782-6.637 7.589-10.298 17.202-10.298 27.073 0 22.766 18.524 41.29 41.29 41.29s41.29-18.524 41.29-41.29c-.002-9.871-3.663-19.484-10.3-27.073z" fill="#e5646e"/><path d="m511.83 181.664s-14.214 16.516-28.428 16.516c-14.223 0-14.223-8.258-28.445-8.258-14.209 0-14.209 8.258-28.419 8.258-14.217 0-14.217-8.258-28.434-8.258-14.201 0-14.201 8.258-28.401 8.258-14.216 0-14.216-8.258-28.433-8.258-14.2 0-14.2 8.258-28.4 8.258-14.219 0-14.219-8.258-28.438-8.258-14.215 0-14.215 8.258-28.43 8.258h-.17c-14.214 0-14.214-8.258-28.428-8.258-14.223 0-14.223 8.258-28.445 8.258-14.209 0-14.209-8.258-28.419-8.258-14.217 0-14.217 8.258-28.434 8.258-14.201 0-14.201-8.258-28.401-8.258-14.216 0-14.216 8.258-28.433 8.258-14.2 0-14.2-8.258-28.4-8.258-14.219 0-14.219 8.258-28.438 8.258-14.215 0-4.965-8.258-19.18-8.258v-82.581l7.266-16.516h478.939c9.133 0 16.532 7.412 16.516 16.545z" fill="#95cc81"/><path d="m511.971 404.632h-445.906c-27.365 0-49.548-22.183-49.548-49.548v-35.879c-4.498-2.389-16.517 2.846-16.517 2.846v82.581c0 9.121 7.395 16.516 16.516 16.516h478.942c9.123 0 16.514-7.397 16.513-16.516z" fill="#db4655"/><path d="m16.516 90.826c-9.121 0-16.516 7.394-16.516 16.516v74.323l16.516 13.669z" fill="#7dbd80"/><path d="m493.468 186.914c-3.121 1.806-5.186 3.008-10.064 3.008-4.887 0-6.952-1.202-10.081-3.016-4.024-2.331-9.032-5.242-18.363-5.242s-14.339 2.911-18.363 5.25c-3.113 1.806-5.177 3.008-10.057 3.008-4.887 0-6.943-1.202-10.073-3.008-4.024-2.339-9.032-5.25-18.363-5.25s-14.331 2.911-18.355 5.25c-3.113 1.815-5.177 3.008-10.048 3.008-4.887 0-6.944-1.202-10.073-3.008-4.024-2.339-9.032-5.25-18.363-5.25-9.323 0-14.323 2.911-18.347 5.25-3.113 1.815-5.177 3.008-10.048 3.008-4.887 0-6.943-1.202-10.073-3.008-4.024-2.339-9.032-5.25-18.371-5.25-9.331 0-14.339 2.911-18.355 5.242-3.121 1.815-5.185 3.016-10.242 3.016-4.887 0-6.952-1.202-10.073-3.016-4.016-2.331-9.024-5.242-18.355-5.242-9.339 0-14.347 2.911-18.371 5.25-3.129 1.806-5.186 3.008-10.073 3.008-4.879 0-6.944-1.202-10.056-3.008-4.024-2.339-9.032-5.25-18.363-5.25s-14.339 2.911-18.363 5.25c-3.129 1.806-5.186 3.008-10.073 3.008-4.871 0-6.936-1.194-10.049-3.008-4.024-2.339-9.024-5.25-18.355-5.25s-14.339 2.911-18.363 5.25c-3.129 1.806-5.186 3.008-10.073 3.008-4.871 0-6.927-1.194-10.04-3.008-4.024-2.339-9.024-5.25-18.355-5.25s-14.339 2.911-18.363 5.242c-3.129 1.815-5.194 3.016-10.081 3.016-4.879 0-6.944-1.202-10.065-3.008-.592-.344-1.201-.668-1.847-1.026l-4.683 8.015 4.683 10.469c3.051 1.158 6.843 2.066 11.911 2.066 9.339 0 14.347-2.911 18.371-5.25 3.129-1.806 5.186-3.008 10.073-3.008 4.871 0 6.935 1.194 10.048 3.008 4.024 2.339 9.024 5.25 18.347 5.25 9.331 0 14.339-2.911 18.363-5.25 3.129-1.806 5.186-3.008 10.073-3.008 4.871 0 6.936 1.194 10.048 3.008 4.024 2.339 9.024 5.25 18.355 5.25s14.339-2.911 18.363-5.25c3.129-1.806 5.186-3.008 10.073-3.008 4.879 0 6.944 1.202 10.056 3.008 4.024 2.339 9.032 5.25 18.363 5.25s14.339-2.911 18.363-5.242c3.129-1.815 5.194-3.016 10.081-3.016 4.879 0 6.943 1.202 10.064 3.008 4.016 2.339 9.024 5.25 18.532 5.25 9.339 0 14.339-2.911 18.363-5.25 3.121-1.806 5.186-3.008 10.065-3.008 4.887 0 6.952 1.202 10.081 3.016 4.024 2.331 9.032 5.242 18.363 5.242s14.331-2.911 18.355-5.25c3.113-1.815 5.169-3.008 10.04-3.008 4.887 0 6.944 1.202 10.073 3.008 4.024 2.339 9.032 5.25 18.363 5.25s14.331-2.911 18.355-5.25c3.113-1.815 5.177-3.008 10.048-3.008 4.887 0 6.943 1.202 10.073 3.008 4.024 2.339 9.032 5.25 18.363 5.25s14.339-2.911 18.363-5.25c3.113-1.806 5.177-3.008 10.056-3.008 4.887 0 6.944 1.202 10.073 3.008 4.024 2.339 9.032 5.25 18.371 5.25 9.331 0 14.339-2.911 18.355-5.242 3.121-1.815 5.186-3.016 10.073-3.016v-16.516c-9.336 0-14.344 2.912-18.36 5.25z" fill="#c4dfbc"/><path d="m493.468 310.785c-3.121 1.806-5.186 3.008-10.064 3.008-4.887 0-6.952-1.202-10.081-3.016-4.024-2.331-9.032-5.242-18.363-5.242s-14.339 2.911-18.363 5.25c-3.113 1.806-5.177 3.008-10.057 3.008-4.887 0-6.943-1.202-10.073-3.008-4.024-2.339-9.032-5.25-18.363-5.25s-14.331 2.911-18.355 5.25c-3.113 1.815-5.177 3.008-10.048 3.008-4.887 0-6.944-1.202-10.073-3.008-4.024-2.339-9.032-5.25-18.363-5.25-9.323 0-14.323 2.911-18.347 5.25-3.113 1.815-5.177 3.008-10.048 3.008-4.887 0-6.943-1.202-10.073-3.008-4.024-2.339-9.032-5.25-18.371-5.25-9.331 0-14.339 2.911-18.355 5.242-3.121 1.815-5.185 3.016-10.242 3.016-4.887 0-6.952-1.202-10.073-3.016-4.016-2.331-9.024-5.242-18.355-5.242-9.339 0-14.347 2.911-18.371 5.25-3.129 1.806-5.186 3.008-10.073 3.008-4.879 0-6.944-1.202-10.056-3.008-4.024-2.339-9.032-5.25-18.363-5.25s-14.339 2.911-18.363 5.25c-3.129 1.806-5.186 3.008-10.073 3.008-4.871 0-6.936-1.194-10.049-3.008-4.024-2.339-9.024-5.25-18.355-5.25s-14.339 2.911-18.363 5.25c-3.129 1.806-5.186 3.008-10.073 3.008-4.871 0-6.927-1.194-10.04-3.008-4.024-2.339-9.024-5.25-18.355-5.25s-14.339 2.911-18.363 5.242c-3.129 1.815-5.194 3.016-10.081 3.016-4.879 0-6.944-1.202-10.065-3.008-.593-.345-1.207-.702-1.853-1.06l-9.005 6.595 9.02 11.974c3.051 1.157 6.842 2.015 11.907 2.015 9.339 0 14.347-2.911 18.371-5.25 3.129-1.806 5.186-3.008 10.073-3.008 4.871 0 6.935 1.194 10.048 3.008 4.024 2.339 9.024 5.25 18.347 5.25 9.331 0 14.339-2.911 18.363-5.25 3.129-1.806 5.186-3.008 10.073-3.008 4.871 0 6.936 1.194 10.048 3.008 4.024 2.339 9.024 5.25 18.355 5.25s14.339-2.911 18.363-5.25c3.129-1.806 5.186-3.008 10.073-3.008 4.879 0 6.944 1.202 10.056 3.008 4.024 2.339 9.032 5.25 18.363 5.25s14.339-2.911 18.363-5.242c3.129-1.815 5.194-3.016 10.081-3.016 4.879 0 6.943 1.202 10.064 3.008 4.016 2.339 9.024 5.25 18.532 5.25 9.339 0 14.339-2.911 18.363-5.25 3.121-1.806 5.186-3.008 10.065-3.008 4.887 0 6.952 1.202 10.081 3.016 4.024 2.331 9.032 5.242 18.363 5.242s14.331-2.911 18.355-5.25c3.113-1.815 5.169-3.008 10.04-3.008 4.887 0 6.944 1.202 10.073 3.008 4.024 2.339 9.032 5.25 18.363 5.25s14.331-2.911 18.355-5.25c3.113-1.815 5.177-3.008 10.048-3.008 4.887 0 6.943 1.202 10.073 3.008 4.024 2.339 9.032 5.25 18.363 5.25s14.339-2.911 18.363-5.25c3.113-1.806 5.177-3.008 10.056-3.008 4.887 0 6.944 1.202 10.073 3.008 4.024 2.339 9.032 5.25 18.371 5.25 9.331 0 14.339-2.911 18.355-5.242 3.121-1.815 5.186-3.016 10.073-3.016v-16.516c-9.341 0-14.349 2.912-18.365 5.25z" fill="#ecabb2"/><path d="m16.516 204.373v-18.484c-3.749-2.086-8.503-4.224-16.516-4.224v16.516c4.887 0 6.952 1.202 10.073 3.016 1.819 1.055 3.908 2.207 6.443 3.176z" fill="#acd59e"/><path d="m16.516 328.305v-18.579c-3.749-2.086-8.503-4.19-16.516-4.19v16.516c4.887 0 6.952 1.202 10.073 3.016 1.819 1.055 3.908 2.267 6.443 3.237z" fill="#e88790"/></g></svg>