<svg id="Capa_1" enable-background="new 0 0 512 512" height="512" viewBox="0 0 512 512" width="512" xmlns="http://www.w3.org/2000/svg"><g><g><path d="m512 200.946v-93.591c0-9.122-7.395-16.516-16.516-16.516h-338.581c-9.121 0-16.516 7.394-16.516 16.516v93.591l24.77 22.022h322.069z" fill="#95cc81"/><path d="m140.387 311.054v105.279h355.097l16.516-11.688v-93.591l-24.77-22.022h-322.069z" fill="#5d5360"/><path d="m140.387 200.946h371.613v110.107h-371.613z" fill="#f2f2f6"/></g><path d="m512 404.645h-363.355l8.258 16.516h338.581c9.121 0 16.516-7.394 16.516-16.516z" fill="#4b3f4e"/><path d="m23.667 413.667h118l15.236-9.021v-313.807h-140.387l-9.366 16.516v289.796c.001 9.121 7.395 16.516 16.517 16.516z" fill="#e5646e"/><path d="m156.903 404.645h-90.838c-27.365 0-49.548-22.183-49.548-49.548v-264.258c-9.122 0-16.517 7.394-16.517 16.516v297.29c0 9.121 7.395 16.516 16.516 16.516h140.387z" fill="#db4655"/></g></svg>