<svg id="Capa_1" enable-background="new 0 0 512 512" height="512" viewBox="0 0 512 512" width="512" xmlns="http://www.w3.org/2000/svg"><g><path d="m495.484 90.839h-222.968l-16.516 7.828-16.516-7.828h-222.968l-8.699 10.161v294.151c0 9.122 7.395 16.516 16.516 16.516h477.667l10-7.021v-132.13l-12.5-16.016 12.5-17.017v-132.128c0-9.122-7.395-16.516-16.516-16.516z" fill="#f2f2f6"/><path d="m16.516 355.097v-264.258c-9.121 0-16.516 7.394-16.516 16.516v132.129l10 17.85-10 15.182v132.129c0 9.122 7.395 16.516 16.516 16.516h222.968l16.016-8.258 17.016 8.258h222.968c9.121 0 16.516-7.395 16.516-16.516h-445.935c-27.365 0-49.549-22.183-49.549-49.548z" fill="#e1e1e6"/><path d="m512 239.484h-239.484v-148.645h-33.032v148.645h-222.968l-11.183 16.516 11.183 16.516h222.968v132.129l16.516 10.605 16.516-10.605v-132.129h239.484z" fill="#e5646e"/><g fill="#db4655"><path d="m0 239.484h16.516v33.032h-16.516z"/><path d="m239.484 404.645h33.032v16.516h-33.032z"/></g></g></svg>